<svg xmlns="http://www.w3.org/2000/svg" xmlns:xlink="http://www.w3.org/1999/xlink" version="1.1" class="marks" width="774" height="371" viewBox="0 0 774 371"><rect width="774" height="371" fill="white"/><g fill="none" stroke-miterlimit="10" transform="translate(78,27)"><g class="mark-group role-frame root" role="graphics-object" aria-roledescription="group mark container"><g transform="translate(0,0)"><path class="background" aria-hidden="true" d="M0.5,0.5h580v300h-580Z" stroke="#ddd"/><g><g class="mark-group role-axis" aria-hidden="true"><g transform="translate(0.5,0.5)"><path class="background" aria-hidden="true" d="M0,0h0v0h0Z" pointer-events="none"/><g><g class="mark-rule role-axis-grid" pointer-events="none"><line transform="translate(0,300)" x2="580" y2="0" stroke="#ddd" stroke-width="1" opacity="1"/><line transform="translate(0,200)" x2="580" y2="0" stroke="#ddd" stroke-width="1" opacity="1"/><line transform="translate(0,159)" x2="580" y2="0" stroke="#ddd" stroke-width="1" opacity="1"/><line transform="translate(0,127)" x2="580" y2="0" stroke="#ddd" stroke-width="1" opacity="1"/><line transform="translate(0,100)" x2="580" y2="0" stroke="#ddd" stroke-width="1" opacity="1"/><line transform="translate(0,76)" x2="580" y2="0" stroke="#ddd" stroke-width="1" opacity="1"/><line transform="translate(0,55)" x2="580" y2="0" stroke="#ddd" stroke-width="1" opacity="1"/><line transform="translate(0,35)" x2="580" y2="0" stroke="#ddd" stroke-width="1" opacity="1"/><line transform="translate(0,17)" x2="580" y2="0" stroke="#ddd" stroke-width="1" opacity="1"/><line transform="translate(0,0)" x2="580" y2="0" stroke="#ddd" stroke-width="1" opacity="1"/></g></g><path class="foreground" aria-hidden="true" d="" pointer-events="none" display="none"/></g></g><g class="mark-group role-axis" role="graphics-symbol" aria-roledescription="axis" aria-label="X-axis titled 'State' for a discrete scale with 29 values: AZ, CA, CO, CT, DC, ending with XX"><g transform="translate(0.5,300.5)"><path class="background" aria-hidden="true" d="M0,0h0v0h0Z" pointer-events="none"/><g><g class="mark-rule role-axis-tick" pointer-events="none"><line transform="translate(10,0)" x2="0" y2="5" stroke="#888" stroke-width="1" opacity="1"/><line transform="translate(30,0)" x2="0" y2="5" stroke="#888" stroke-width="1" opacity="1"/><line transform="translate(50,0)" x2="0" y2="5" stroke="#888" stroke-width="1" opacity="1"/><line transform="translate(70,0)" x2="0" y2="5" stroke="#888" stroke-width="1" opacity="1"/><line transform="translate(90,0)" x2="0" y2="5" stroke="#888" stroke-width="1" opacity="1"/><line transform="translate(110,0)" x2="0" y2="5" stroke="#888" stroke-width="1" opacity="1"/><line transform="translate(130,0)" x2="0" y2="5" stroke="#888" stroke-width="1" opacity="1"/><line transform="translate(150,0)" x2="0" y2="5" stroke="#888" stroke-width="1" opacity="1"/><line transform="translate(170,0)" x2="0" y2="5" stroke="#888" stroke-width="1" opacity="1"/><line transform="translate(190,0)" x2="0" y2="5" stroke="#888" stroke-width="1" opacity="1"/><line transform="translate(210,0)" x2="0" y2="5" stroke="#888" stroke-width="1" opacity="1"/><line transform="translate(230,0)" x2="0" y2="5" stroke="#888" stroke-width="1" opacity="1"/><line transform="translate(250,0)" x2="0" y2="5" stroke="#888" stroke-width="1" opacity="1"/><line transform="translate(270,0)" x2="0" y2="5" stroke="#888" stroke-width="1" opacity="1"/><line transform="translate(290,0)" x2="0" y2="5" stroke="#888" stroke-width="1" opacity="1"/><line transform="translate(310,0)" x2="0" y2="5" stroke="#888" stroke-width="1" opacity="1"/><line transform="translate(330,0)" x2="0" y2="5" stroke="#888" stroke-width="1" opacity="1"/><line transform="translate(350,0)" x2="0" y2="5" stroke="#888" stroke-width="1" opacity="1"/><line transform="translate(370,0)" x2="0" y2="5" stroke="#888" stroke-width="1" opacity="1"/><line transform="translate(390,0)" x2="0" y2="5" stroke="#888" stroke-width="1" opacity="1"/><line transform="translate(410,0)" x2="0" y2="5" stroke="#888" stroke-width="1" opacity="1"/><line transform="translate(430,0)" x2="0" y2="5" stroke="#888" stroke-width="1" opacity="1"/><line transform="translate(450,0)" x2="0" y2="5" stroke="#888" stroke-width="1" opacity="1"/><line transform="translate(470,0)" x2="0" y2="5" stroke="#888" stroke-width="1" opacity="1"/><line transform="translate(490,0)" x2="0" y2="5" stroke="#888" stroke-width="1" opacity="1"/><line transform="translate(510,0)" x2="0" y2="5" stroke="#888" stroke-width="1" opacity="1"/><line transform="translate(530,0)" x2="0" y2="5" stroke="#888" stroke-width="1" opacity="1"/><line transform="translate(550,0)" x2="0" y2="5" stroke="#888" stroke-width="1" opacity="1"/><line transform="translate(570,0)" x2="0" y2="5" stroke="#888" stroke-width="1" opacity="1"/></g><g class="mark-text role-axis-label" pointer-events="none"><text text-anchor="end" transform="translate(9.5,7) rotate(270) translate(0,3)" font-family="sans-serif" font-size="10px" fill="#000" opacity="1">AZ</text><text text-anchor="end" transform="translate(29.5,7) rotate(270) translate(0,3)" font-family="sans-serif" font-size="10px" fill="#000" opacity="1">CA</text><text text-anchor="end" transform="translate(49.5,7) rotate(270) translate(0,3)" font-family="sans-serif" font-size="10px" fill="#000" opacity="1">CO</text><text text-anchor="end" transform="translate(69.5,7) rotate(270) translate(0,3)" font-family="sans-serif" font-size="10px" fill="#000" opacity="1">CT</text><text text-anchor="end" transform="translate(89.5,7) rotate(270) translate(0,3)" font-family="sans-serif" font-size="10px" fill="#000" opacity="1">DC</text><text text-anchor="end" transform="translate(109.5,7) rotate(270) translate(0,3)" font-family="sans-serif" font-size="10px" fill="#000" opacity="1">FL</text><text text-anchor="end" transform="translate(129.5,7) rotate(270) translate(0,3)" font-family="sans-serif" font-size="10px" fill="#000" opacity="1">GA</text><text text-anchor="end" transform="translate(149.5,7) rotate(270) translate(0,3)" font-family="sans-serif" font-size="10px" fill="#000" opacity="1">HI</text><text text-anchor="end" transform="translate(169.5,7) rotate(270) translate(0,3)" font-family="sans-serif" font-size="10px" fill="#000" opacity="1">IL</text><text text-anchor="end" transform="translate(189.5,7) rotate(270) translate(0,3)" font-family="sans-serif" font-size="10px" fill="#000" opacity="1">KY</text><text text-anchor="end" transform="translate(209.5,7) rotate(270) translate(0,3)" font-family="sans-serif" font-size="10px" fill="#000" opacity="1">LA</text><text text-anchor="end" transform="translate(229.5,7) rotate(270) translate(0,3)" font-family="sans-serif" font-size="10px" fill="#000" opacity="1">MA</text><text text-anchor="end" transform="translate(249.5,7) rotate(270) translate(0,3)" font-family="sans-serif" font-size="10px" fill="#000" opacity="1">MD</text><text text-anchor="end" transform="translate(269.5,7) rotate(270) translate(0,3)" font-family="sans-serif" font-size="10px" fill="#000" opacity="1">MI</text><text text-anchor="end" transform="translate(289.5,7) rotate(270) translate(0,3)" font-family="sans-serif" font-size="10px" fill="#000" opacity="1">MN</text><text text-anchor="end" transform="translate(309.5,7) rotate(270) translate(0,3)" font-family="sans-serif" font-size="10px" fill="#000" opacity="1">MO</text><text text-anchor="end" transform="translate(329.5,7) rotate(270) translate(0,3)" font-family="sans-serif" font-size="10px" fill="#000" opacity="1">NC</text><text text-anchor="end" transform="translate(349.5,7) rotate(270) translate(0,3)" font-family="sans-serif" font-size="10px" fill="#000" opacity="1">NM</text><text text-anchor="end" transform="translate(369.5,7) rotate(270) translate(0,3)" font-family="sans-serif" font-size="10px" fill="#000" opacity="1">NV</text><text text-anchor="end" transform="translate(389.5,7) rotate(270) translate(0,3)" font-family="sans-serif" font-size="10px" fill="#000" opacity="1">NY</text><text text-anchor="end" transform="translate(409.5,7) rotate(270) translate(0,3)" font-family="sans-serif" font-size="10px" fill="#000" opacity="1">OH</text><text text-anchor="end" transform="translate(429.5,7) rotate(270) translate(0,3)" font-family="sans-serif" font-size="10px" fill="#000" opacity="1">OR</text><text text-anchor="end" transform="translate(449.5,7) rotate(270) translate(0,3)" font-family="sans-serif" font-size="10px" fill="#000" opacity="1">PA</text><text text-anchor="end" transform="translate(469.5,7) rotate(270) translate(0,3)" font-family="sans-serif" font-size="10px" fill="#000" opacity="1">TN</text><text text-anchor="end" transform="translate(489.5,7) rotate(270) translate(0,3)" font-family="sans-serif" font-size="10px" fill="#000" opacity="1">TX</text><text text-anchor="end" transform="translate(509.5,7) rotate(270) translate(0,3)" font-family="sans-serif" font-size="10px" fill="#000" opacity="1">UT</text><text text-anchor="end" transform="translate(529.5,7) rotate(270) translate(0,3)" font-family="sans-serif" font-size="10px" fill="#000" opacity="1">VA</text><text text-anchor="end" transform="translate(549.5,7) rotate(270) translate(0,3)" font-family="sans-serif" font-size="10px" fill="#000" opacity="1">WA</text><text text-anchor="end" transform="translate(569.5,7) rotate(270) translate(0,3)" font-family="sans-serif" font-size="10px" fill="#000" opacity="1">XX</text></g><g class="mark-rule role-axis-domain" pointer-events="none"><line transform="translate(0,0)" x2="580" y2="0" stroke="#888" stroke-width="1" opacity="1"/></g><g class="mark-text role-axis-title" pointer-events="none"><text text-anchor="middle" transform="translate(290,36.1083984375)" font-family="sans-serif" font-size="11px" font-weight="bold" fill="#000" opacity="1">State</text></g></g><path class="foreground" aria-hidden="true" d="" pointer-events="none" display="none"/></g></g><g class="mark-group role-axis" role="graphics-symbol" aria-roledescription="axis" aria-label="Y-axis titled 'Total Contribution' for a sqrt scale with values from 0 to 18,000,000"><g transform="translate(0.5,0.5)"><path class="background" aria-hidden="true" d="M0,0h0v0h0Z" pointer-events="none"/><g><g class="mark-rule role-axis-tick" pointer-events="none"><line transform="translate(0,300)" x2="-5" y2="0" stroke="#888" stroke-width="1" opacity="1"/><line transform="translate(0,200)" x2="-5" y2="0" stroke="#888" stroke-width="1" opacity="1"/><line transform="translate(0,159)" x2="-5" y2="0" stroke="#888" stroke-width="1" opacity="1"/><line transform="translate(0,127)" x2="-5" y2="0" stroke="#888" stroke-width="1" opacity="1"/><line transform="translate(0,100)" x2="-5" y2="0" stroke="#888" stroke-width="1" opacity="1"/><line transform="translate(0,76)" x2="-5" y2="0" stroke="#888" stroke-width="1" opacity="1"/><line transform="translate(0,55)" x2="-5" y2="0" stroke="#888" stroke-width="1" opacity="1"/><line transform="translate(0,35)" x2="-5" y2="0" stroke="#888" stroke-width="1" opacity="1"/><line transform="translate(0,17)" x2="-5" y2="0" stroke="#888" stroke-width="1" opacity="1"/><line transform="translate(0,0)" x2="-5" y2="0" stroke="#888" stroke-width="1" opacity="1"/></g><g class="mark-text role-axis-label" pointer-events="none"><text text-anchor="end" transform="translate(-7,303)" font-family="sans-serif" font-size="10px" fill="#000" opacity="1">0</text><text text-anchor="end" transform="translate(-7,203)" font-family="sans-serif" font-size="10px" fill="#000" opacity="1">2,000,000</text><text text-anchor="end" transform="translate(-7,161.57864376269046)" font-family="sans-serif" font-size="10px" fill="#000" opacity="1">4,000,000</text><text text-anchor="end" transform="translate(-7,129.79491924311228)" font-family="sans-serif" font-size="10px" fill="#000" opacity="1">6,000,000</text><text text-anchor="end" transform="translate(-7,102.99999999999997)" font-family="sans-serif" font-size="10px" fill="#000" opacity="1">8,000,000</text><text text-anchor="end" transform="translate(-7,79.39320225002099)" font-family="sans-serif" font-size="10px" fill="#000" opacity="1">10,000,000</text><text text-anchor="end" transform="translate(-7,58.05102572168219)" font-family="sans-serif" font-size="10px" fill="#000" opacity="1">12,000,000</text><text text-anchor="end" transform="translate(-7,38.42486889354094)" font-family="sans-serif" font-size="10px" fill="#000" opacity="1">14,000,000</text><text text-anchor="end" transform="translate(-7,20.15728752538096)" font-family="sans-serif" font-size="10px" fill="#000" opacity="1">16,000,000</text><text text-anchor="end" transform="translate(-7,3)" font-family="sans-serif" font-size="10px" fill="#000" opacity="1">18,000,000</text></g><g class="mark-rule role-axis-domain" pointer-events="none"><line transform="translate(0,300)" x2="0" y2="-300" stroke="#888" stroke-width="1" opacity="1"/></g><g class="mark-text role-axis-title" pointer-events="none"><text text-anchor="middle" transform="translate(-61.048828125,150) rotate(-90) translate(0,-2)" font-family="sans-serif" font-size="11px" font-weight="bold" fill="#000" opacity="1">Total Contribution</text></g></g><path class="foreground" aria-hidden="true" d="" pointer-events="none" display="none"/></g></g><g class="mark-rect role-mark layer_0_marks" role="graphics-symbol" aria-roledescription="rect mark container"><path d="M161,39.22196315640378h18v181.16523259704297h-18Z" fill="blue"/><path d="M381,26.86027733044758h18v94.50972980721141h-18Z" fill="blue"/><path d="M381,121.37000713765899h18v178.629992862341h-18Z" fill="red"/><path d="M81,136.1284657117045h18v92.38595882023341h-18Z" fill="blue"/><path d="M21,126.18672763566069h18v51.796557525756626h-18Z" fill="blue"/><path d="M21,91.67197092085758h18v34.51475671480311h-18Z" fill="blue"/><path d="M481,192.75901856099975h18v107.24098143900025h-18Z" fill="red"/><path d="M541,196.22769179593234h18v64.8188667643181h-18Z" fill="blue"/><path d="M121,192.39452918183014h18v35.97952893954604h-18Z" fill="blue"/><path d="M481,138.96549764103347h18v21.233535624111653h-18Z" fill="blue"/><path d="M481,120.39214660822873h18v18.573351032804737h-18Z" fill="blue"/><path d="M481,167.96739834419682h18v24.791620216802926h-18Z" fill="red"/><path d="M61,224.0003161190785h18v75.99968388092151h-18Z" fill="red"/><path d="M381,16.529577645215298h18v10.330699685232283h-18Z" fill="blue"/><path d="M481,106.08367667986278h18v14.308469928365952h-18Z" fill="blue"/><path d="M121,228.37405812137618h18v71.62594187862382h-18Z" fill="red"/><path d="M81,228.51442453193792h18v71.48557546806208h-18Z" fill="red"/><path d="M161,231.46261166341395h18v68.53738833658605h-18Z" fill="red"/><path d="M21,231.65022457973984h18v68.34977542026016h-18Z" fill="red"/><path d="M221,210.49101637265676h18v30.586800198688792h-18Z" fill="blue"/><path d="M241,211.27767642808263h18v27.3922318550448h-18Z" fill="blue"/><path d="M501,236.60317831310468h18v63.39682168689532h-18Z" fill="red"/><path d="M221,190.33285131818192h18v20.158165054474836h-18Z" fill="blue"/><path d="M441,237.93361578116537h18v62.06638421883463h-18Z" fill="blue"/><path d="M101,152.8885374962236h18v13.07983843691673h-18Z" fill="blue"/><path d="M221,241.07781657134555h18v58.92218342865445h-18Z" fill="red"/><path d="M101,241.3583339254417h18v58.64166607455829h-18Z" fill="red"/><path d="M21,83.6105884059943h18v8.061382514863269h-18Z" fill="blue"/><path d="M21,75.87265851752936h18v7.737929888464947h-18Z" fill="blue"/><path d="M281,242.96959451310204h18v57.03040548689796h-18Z" fill="blue"/><path d="M101,218.3789855490634h18v22.97934837637831h-18Z" fill="red"/><path d="M401,244.0381898076912h18v55.9618101923088h-18Z" fill="red"/><path d="M21,69.00992921772588h18v6.862729299803476h-18Z" fill="blue"/><path d="M521,194.998251681222h18v15.733357776548559h-18Z" fill="blue"/><path d="M41,232.22978751693336h18v28.569878300817606h-18Z" fill="blue"/><path d="M21,62.490471980596084h18v6.519457237129799h-18Z" fill="blue"/><path d="M241,195.60678518217765h18v15.670891245904983h-18Z" fill="blue"/><path d="M521,245.37060864333193h18v54.629391356668066h-18Z" fill="red"/><path d="M21,56.32167741056651h18v6.168794570029576h-18Z" fill="blue"/><path d="M21,50.37676760766032h18v5.944909802906189h-18Z" fill="blue"/><path d="M441,217.6987275311007h18v20.23488825006467h-18Z" fill="blue"/><path d="M101,202.12288009958607h18v16.25610544947733h-18Z" fill="red"/><path d="M521,223.31135840295514h18v22.059250240376826h-18Z" fill="red"/><path d="M101,188.37770473601609h18v13.745175363569984h-18Z" fill="red"/><path d="M21,214.1333196169783h18v17.516904962761544h-18Z" fill="red"/><path d="M301,222.96630250338495h18v20.11339707576343h-18Z" fill="blue"/><path d="M421,248.18265300114254h18v51.81734699885746h-18Z" fill="blue"/><path d="M521,183.16597392026586h18v11.832277760956146h-18Z" fill="blue"/><path d="M61,208.60181867236088h18v15.398497446717613h-18Z" fill="red"/><path d="M261,249.53048296248517h18v50.469517037514834h-18Z" fill="red"/><path d="M161,34.44599183970127h18v4.77597131670251h-18Z" fill="blue"/><path d="M101,177.93245558298472h18v10.44524915303137h-18Z" fill="red"/><path d="M241,185.5866865264361h18v10.020098655741549h-18Z" fill="blue"/><path d="M141,253.34061241293452h18v46.65938758706548h-18Z" fill="blue"/><path d="M321,253.5734730999615h18v46.42652690003851h-18Z" fill="red"/><path d="M241,176.57669932302088h18v9.009987203415221h-18Z" fill="blue"/><path d="M461,253.90504365985365h18v46.094956340146354h-18Z" fill="red"/><path d="M361,253.97017488627617h18v46.02982511372383h-18Z" fill="red"/><path d="M481,160.19903326514512h18v7.768365079051705h-18Z" fill="red"/><path d="M21,202.61584369108084h18v11.517475925897458h-18Z" fill="red"/><path d="M521,210.73160945777056h18v12.579748945184576h-18Z" fill="red"/><path d="M241,254.39337274035714h18v45.60662725964286h-18Z" fill="red"/><path d="M461,235.62564951783978h18v18.27939414201387h-18Z" fill="blue"/><path d="M561,255.32058639596977h18v44.67941360403023h-18Z" fill="red"/><path d="M1,255.65576587649755h18v44.344234123502446h-18Z" fill="red"/><path d="M21,193.03679417668897h18v9.579049514391869h-18Z" fill="red"/><path d="M261,232.9270535163394h18v16.603429446145753h-18Z" fill="blue"/><path d="M1,224.4040688925654h18v14.20156735961163h-18Z" fill="blue"/><path d="M21,184.53388094336933h18v8.502913233319646h-18Z" fill="red"/><path d="M481,101.32804865809571h18v4.755628021767066h-18Z" fill="blue"/><path d="M361,237.06829813202253h18v16.901876754253635h-18Z" fill="blue"/><path d="M401,229.65640256569188h18v14.38178724199932h-18Z" fill="blue"/><path d="M321,237.0195712939329h18v16.55390180602859h-18Z" fill="blue"/><path d="M41,220.0235515917342h18v12.206235925199167h-18Z" fill="blue"/><path d="M181,257.53409367504327h18v42.465906324956734h-18Z" fill="blue"/><path d="M1,238.60563625217702h18v17.050129624320533h-18Z" fill="red"/><path d="M21,46.8257097373432h18v3.5510578703171163h-18Z" fill="blue"/><path d="M221,182.50362558785056h18v7.829225730331359h-18Z" fill="blue"/><path d="M341,258.23333865389765h18v41.76666134610235h-18Z" fill="blue"/><path d="M301,258.6581326014414h18v41.34186739855858h-18Z" fill="red"/><path d="M241,238.66990828312743h18v15.72346445722971h-18Z" fill="red"/><path d="M521,176.19866862589888h18v6.96730529436698h-18Z" fill="blue"/><path d="M21,43.59949229769453h18v3.2262174396486714h-18Z" fill="blue"/><path d="M101,147.40462883822454h18v5.483908657999052h-18Z" fill="blue"/><path d="M161,220.3871957534468h18v11.075415909967148h-18Z" fill="red"/><path d="M21,40.42310031514742h18v3.176391982547109h-18Z" fill="blue"/><path d="M61,200.04002025810527h18v8.561798414255605h-18Z" fill="red"/><path d="M201,259.78768845241547h18v40.212311547584534h-18Z" fill="red"/><path d="M321,225.3196936937187h18v11.699877600214194h-18Z" fill="blue"/><path d="M101,142.26898672106364h18v5.135642117160899h-18Z" fill="blue"/><path d="M21,177.9832851614173h18v6.550595781952012h-18Z" fill="red"/><path d="M501,225.39663613482298h18v11.206542178281694h-18Z" fill="red"/><path d="M321,215.63136098051598h18v9.688332713202726h-18Z" fill="blue"/><path d="M21,37.4767447443941h18v2.946355570753326h-18Z" fill="blue"/><path d="M41,260.79966581775096h18v39.20033418224904h-18Z" fill="red"/><path d="M101,171.79861662212843h18v6.133838960856281h-18Z" fill="red"/><path d="M301,243.07969957914838h18v15.57843302229304h-18Z" fill="red"/><path d="M101,165.96837593314032h18v5.830240688988113h-18Z" fill="red"/><path d="M21,34.584684409508846h18v2.892060334885251h-18Z" fill="blue"/><path d="M541,261.04655856025045h18v38.953441439749554h-18Z" fill="red"/></g><g class="mark-line role-mark layer_1_marks" role="graphics-symbol" aria-roledescription="line mark container"><path d="M10,256.355L30,239.11L50,253.826L70,242.288L90,184.125L110,250.121L130,223.911L150,253.341L170,167.223L190,257.534L210,259.788L230,241.252L250,249.613L270,252.572L290,242.97L310,255.525L330,257.816L350,258.233L370,255.501L390,136.338L410,250.26L430,248.183L450,241.804L470,254.48L490,224.909L510,247.247L530,249.458L550,226.622L570,255.321" stroke="black" stroke-width="2"/></g><g class="mark-text role-mark layer_2_marks" role="graphics-object" aria-roledescription="text mark container"><text text-anchor="middle" transform="translate(170,165.22299591985063)" font-family="sans-serif" font-size="11px" fill="black">3525946.5625</text><text text-anchor="middle" transform="translate(390,134.33827534616816)" font-family="sans-serif" font-size="11px" fill="black">5357032.02333</text><text text-anchor="middle" transform="translate(90,182.12532686130243)" font-family="sans-serif" font-size="11px" fill="black">2685387.975</text><text text-anchor="middle" transform="translate(30,237.1095505933207)" font-family="sans-serif" font-size="11px" fill="black">741529.365789</text><text text-anchor="middle" transform="translate(490,222.90906060934228)" font-family="sans-serif" font-size="11px" fill="black">1127729.83571</text><text text-anchor="middle" transform="translate(550,224.62189716952338)" font-family="sans-serif" font-size="11px" fill="black">1076869.195</text><text text-anchor="middle" transform="translate(130,221.91144189170095)" font-family="sans-serif" font-size="11px" fill="black">1157893.735</text><text text-anchor="middle" transform="translate(70,240.28807878782754)" font-family="sans-serif" font-size="11px" fill="black">666133.17</text><text text-anchor="middle" transform="translate(230,239.25181279392527)" font-family="sans-serif" font-size="11px" fill="black">690269.9</text><text text-anchor="middle" transform="translate(250,247.6126484952159)" font-family="sans-serif" font-size="11px" fill="black">507777.038333</text><text text-anchor="middle" transform="translate(510,245.2474555116059)" font-family="sans-serif" font-size="11px" fill="black">556566.19</text><text text-anchor="middle" transform="translate(450,239.80421213695962)" font-family="sans-serif" font-size="11px" fill="black">677349.945</text><text text-anchor="middle" transform="translate(110,248.12107403922974)" font-family="sans-serif" font-size="11px" fill="black">497581.451</text><text text-anchor="middle" transform="translate(290,240.96959451310204)" font-family="sans-serif" font-size="11px" fill="black">650493.43</text><text text-anchor="middle" transform="translate(410,248.2595652411441)" font-family="sans-serif" font-size="11px" fill="black">494822.17</text><text text-anchor="middle" transform="translate(530,247.458318109373)" font-family="sans-serif" font-size="11px" fill="black">510892.321667</text><text text-anchor="middle" transform="translate(50,251.8255759826575)" font-family="sans-serif" font-size="11px" fill="black">426415.486667</text><text text-anchor="middle" transform="translate(310,253.52457401365706)" font-family="sans-serif" font-size="11px" fill="black">395612.703333</text><text text-anchor="middle" transform="translate(430,246.18265300114254)" font-family="sans-serif" font-size="11px" fill="black">537007.49</text><text text-anchor="middle" transform="translate(270,250.57226470724117)" font-family="sans-serif" font-size="11px" fill="black">449878.015</text><text text-anchor="middle" transform="translate(150,251.34061241293452)" font-family="sans-serif" font-size="11px" fill="black">435419.69</text><text text-anchor="middle" transform="translate(330,255.815680490258)" font-family="sans-serif" font-size="11px" fill="black">355903.3625</text><text text-anchor="middle" transform="translate(470,252.48046023958503)" font-family="sans-serif" font-size="11px" fill="black">414405.7</text><text text-anchor="middle" transform="translate(370,253.50056685754302)" font-family="sans-serif" font-size="11px" fill="black">396039.91</text><text text-anchor="middle" transform="translate(570,253.32058639596977)" font-family="sans-serif" font-size="11px" fill="black">399250</text><text text-anchor="middle" transform="translate(10,254.35466882548224)" font-family="sans-serif" font-size="11px" fill="black">380982.986667</text><text text-anchor="middle" transform="translate(190,255.53409367504327)" font-family="sans-serif" font-size="11px" fill="black">360670.64</text><text text-anchor="middle" transform="translate(350,256.23333865389765)" font-family="sans-serif" font-size="11px" fill="black">348890.8</text><text text-anchor="middle" transform="translate(210,257.78768845241547)" font-family="sans-serif" font-size="11px" fill="black">323406</text></g><g class="mark-group role-legend" role="graphics-symbol" aria-roledescription="legend" aria-label="Symbol legend titled 'Candidate Names' for fill color with 2 values: Obama, Barack, Romney, Mitt"><g transform="translate(598,0)"><path class="background" aria-hidden="true" d="M0,0h93v40h-93Z" pointer-events="none"/><g><g class="mark-group role-legend-entry"><g transform="translate(0,16)"><path class="background" aria-hidden="true" d="M0,0h0v0h0Z" pointer-events="none"/><g><g class="mark-group role-scope" role="graphics-object" aria-roledescription="group mark container"><g transform="translate(0,0)"><path class="background" aria-hidden="true" d="M0,0h85.47265625v11h-85.47265625Z" pointer-events="none" opacity="1"/><g><g class="mark-symbol role-legend-symbol" pointer-events="none"><path transform="translate(6,6)" d="M-5,-5h10v10h-10Z" fill="blue" stroke-width="1.5" opacity="1"/></g><g class="mark-text role-legend-label" pointer-events="none"><text text-anchor="start" transform="translate(16,9)" font-family="sans-serif" font-size="10px" fill="#000" opacity="1">Obama, Barack</text></g></g><path class="foreground" aria-hidden="true" d="" pointer-events="none" display="none"/></g><g transform="translate(0,13)"><path class="background" aria-hidden="true" d="M0,0h85.47265625v11h-85.47265625Z" pointer-events="none" opacity="1"/><g><g class="mark-symbol role-legend-symbol" pointer-events="none"><path transform="translate(6,6)" d="M-5,-5h10v10h-10Z" fill="red" stroke-width="1.5" opacity="1"/></g><g class="mark-text role-legend-label" pointer-events="none"><text text-anchor="start" transform="translate(16,9)" font-family="sans-serif" font-size="10px" fill="#000" opacity="1">Romney, Mitt</text></g></g><path class="foreground" aria-hidden="true" d="" pointer-events="none" display="none"/></g></g></g><path class="foreground" aria-hidden="true" d="" pointer-events="none" display="none"/></g></g><g class="mark-text role-legend-title" pointer-events="none"><text text-anchor="start" transform="translate(0,9)" font-family="sans-serif" font-size="11px" font-weight="bold" fill="#000" opacity="1">Candidate Names</text></g></g><path class="foreground" aria-hidden="true" d="" pointer-events="none" display="none"/></g></g><g class="mark-group role-title"><g transform="translate(290,-22)"><path class="background" aria-hidden="true" d="M0,0h0v0h0Z" pointer-events="none"/><g><g class="mark-text role-title-text" role="graphics-symbol" aria-roledescription="title" aria-label="Title text 'Multiview Composition FTW'" pointer-events="none"><text text-anchor="middle" transform="translate(0,10)" font-family="sans-serif" font-size="13px" font-weight="bold" fill="#000" opacity="1">Multiview Composition FTW</text></g></g><path class="foreground" aria-hidden="true" d="" pointer-events="none" display="none"/></g></g></g><path class="foreground" aria-hidden="true" d="" display="none"/></g></g></g></svg>